<svg xmlns="http://www.w3.org/2000/svg" version="1.1" xmlns:xlink="http://www.w3.org/1999/xlink" xmlns:svgjs="http://svgjs.dev/svgjs" width="200" height="200" viewBox="0 0 2000 1500"><rect width="2000" height="1500" fill="#ffffff"></rect><g transform="matrix(0.75,0,0,0.75,249.090909090909,568.9284994331143)"><svg viewBox="0 0 396 95" data-background-color="#ffffff" preserveAspectRatio="xMidYMid meet" height="479" width="2000" xmlns="http://www.w3.org/2000/svg" xmlns:xlink="http://www.w3.org/1999/xlink"><g id="tight-bounds" transform="matrix(1,0,0,1,0.24000000000003752,0.38251232805606605)"><svg viewBox="0 0 395.5199999999999 94.23497534388787" height="94.23497534388787" width="395.5199999999999"><g><svg viewBox="0 0 395.5199999999999 94.23497534388787" height="94.23497534388787" width="395.5199999999999"><g><svg viewBox="0 0 395.5199999999999 94.23497534388787" height="94.23497534388787" width="395.5199999999999"><g id="textblocktransform"><svg viewBox="0 0 395.5199999999999 94.23497534388787" height="94.23497534388787" width="395.5199999999999" id="textblock"><g><svg viewBox="0 0 395.5199999999999 94.23497534388787" height="94.23497534388787" width="395.5199999999999"><g transform="matrix(1,0,0,1,0,0)"><svg width="395.5199999999999" viewBox="1.55 -40.55 192.63 45.9" height="94.23497534388787" data-palette-color="#000000"><path d="M5.35-7.05Q7.05-7.05 8.1-5.9 9.15-4.75 9.15-3.15L9.15-3.15Q9.15-1.55 8.1-0.4 7.05 0.75 5.35 0.75L5.35 0.75Q3.7 0.75 2.63-0.4 1.55-1.55 1.55-3.15L1.55-3.15Q1.55-4.75 2.63-5.9 3.7-7.05 5.35-7.05L5.35-7.05ZM13.9 4.25L23.8-40.55 28.9-39.45 19.05 5.35 13.9 4.25ZM51.85-6.4Q51.85-5.1 52.2-4.48 52.55-3.85 53.35-3.45L53.35-3.45 52.1 0.65Q50.05 0.4 48.82-0.45 47.6-1.3 47-3.05L47-3.05Q44.7 0.75 40.55 0.75L40.55 0.75Q37.25 0.75 35.3-1.48 33.35-3.7 33.35-7.4L33.35-7.4Q33.35-11.7 36.02-13.95 38.7-16.2 43.8-16.2L43.8-16.2 45.85-16.2 45.85-18.05Q45.85-20.55 44.97-21.58 44.1-22.6 42.15-22.6L42.15-22.6Q39.8-22.6 36.3-21.3L36.3-21.3 34.9-25.3Q36.9-26.2 39.05-26.68 41.2-27.15 43.15-27.15L43.15-27.15Q51.85-27.15 51.85-18.35L51.85-18.35 51.85-6.4ZM42.2-3.7Q44.6-3.7 45.85-7L45.85-7 45.85-12.55 44.4-12.55Q41.85-12.55 40.67-11.4 39.5-10.25 39.5-7.85L39.5-7.85Q39.5-5.8 40.2-4.75 40.9-3.7 42.2-3.7L42.2-3.7ZM70.59-37.7L76.74-37.05 76.74 0 71.29 0 70.99-3.05Q68.64 0.75 64.94 0.75L64.94 0.75Q60.84 0.75 58.67-2.93 56.49-6.6 56.49-13.2L56.49-13.2Q56.49-17.4 57.62-20.58 58.74-23.75 60.74-25.45 62.74-27.15 65.34-27.15L65.34-27.15Q68.54-27.15 70.59-24.5L70.59-24.5 70.59-37.7ZM66.69-3.9Q67.84-3.9 68.77-4.7 69.69-5.5 70.59-7L70.59-7 70.59-19.85Q68.99-22.55 66.94-22.55L66.94-22.55Q62.89-22.55 62.89-13.25L62.89-13.25Q62.89-8.2 63.89-6.05 64.89-3.9 66.69-3.9L66.69-3.9ZM101.29-13.85Q101.29-13.4 101.14-11.3L101.14-11.3 87.49-11.3Q87.69-7.2 88.92-5.58 90.14-3.95 92.39-3.95L92.39-3.95Q93.94-3.95 95.19-4.48 96.44-5 97.89-6.15L97.89-6.15 100.44-2.65Q96.94 0.75 92.04 0.75L92.04 0.75Q86.84 0.75 84.07-2.85 81.29-6.45 81.29-13L81.29-13Q81.29-19.55 83.94-23.35 86.59-27.15 91.44-27.15L91.44-27.15Q96.09-27.15 98.69-23.78 101.29-20.4 101.29-13.85L101.29-13.85ZM95.29-15.3L95.29-15.65Q95.29-19.4 94.39-21.13 93.49-22.85 91.49-22.85L91.49-22.85Q89.64-22.85 88.67-21.18 87.69-19.5 87.49-15.3L87.49-15.3 95.29-15.3ZM122.49-6.4Q122.49-5.1 122.84-4.48 123.19-3.85 123.99-3.45L123.99-3.45 122.74 0.65Q120.69 0.4 119.46-0.45 118.24-1.3 117.64-3.05L117.64-3.05Q115.34 0.75 111.19 0.75L111.19 0.75Q107.89 0.75 105.94-1.48 103.99-3.7 103.99-7.4L103.99-7.4Q103.99-11.7 106.66-13.95 109.34-16.2 114.44-16.2L114.44-16.2 116.49-16.2 116.49-18.05Q116.49-20.55 115.61-21.58 114.74-22.6 112.79-22.6L112.79-22.6Q110.44-22.6 106.94-21.3L106.94-21.3 105.54-25.3Q107.54-26.2 109.69-26.68 111.84-27.15 113.79-27.15L113.79-27.15Q122.49-27.15 122.49-18.35L122.49-18.35 122.49-6.4ZM112.84-3.7Q115.24-3.7 116.49-7L116.49-7 116.49-12.55 115.04-12.55Q112.49-12.55 111.31-11.4 110.14-10.25 110.14-7.85L110.14-7.85Q110.14-5.8 110.84-4.75 111.54-3.7 112.84-3.7L112.84-3.7ZM140.44-27.15Q144.29-27.15 146.34-23.65 148.39-20.15 148.39-13.25L148.39-13.25Q148.39-6.75 146.09-3 143.79 0.75 139.79 0.75L139.79 0.75Q138.04 0.75 136.59-0.13 135.14-1 134.09-2.55L134.09-2.55 133.74 0 128.29 0 128.29-37 134.44-37.65 134.44-23.6Q135.49-25.3 137.01-26.23 138.54-27.15 140.44-27.15L140.44-27.15ZM138.14-3.9Q139.99-3.9 141.01-6 142.04-8.1 142.04-13.25L142.04-13.25Q142.04-18.6 141.11-20.58 140.19-22.55 138.49-22.55L138.49-22.55Q137.34-22.55 136.29-21.6 135.24-20.65 134.44-19.1L134.44-19.1 134.44-6.7Q135.09-5.45 136.06-4.67 137.04-3.9 138.14-3.9L138.14-3.9ZM169.88-6.4Q169.88-5.1 170.23-4.48 170.58-3.85 171.38-3.45L171.38-3.45 170.13 0.65Q168.08 0.4 166.86-0.45 165.63-1.3 165.03-3.05L165.03-3.05Q162.73 0.75 158.58 0.75L158.58 0.75Q155.28 0.75 153.33-1.48 151.38-3.7 151.38-7.4L151.38-7.4Q151.38-11.7 154.06-13.95 156.73-16.2 161.83-16.2L161.83-16.2 163.88-16.2 163.88-18.05Q163.88-20.55 163.01-21.58 162.13-22.6 160.18-22.6L160.18-22.6Q157.83-22.6 154.33-21.3L154.33-21.3 152.93-25.3Q154.93-26.2 157.08-26.68 159.23-27.15 161.18-27.15L161.18-27.15Q169.88-27.15 169.88-18.35L169.88-18.35 169.88-6.4ZM160.23-3.7Q162.63-3.7 163.88-7L163.88-7 163.88-12.55 162.43-12.55Q159.88-12.55 158.71-11.4 157.53-10.25 157.53-7.85L157.53-7.85Q157.53-5.8 158.23-4.75 158.93-3.7 160.23-3.7L160.23-3.7ZM188.03-27.15Q190.88-27.15 192.53-25.1 194.18-23.05 194.18-19.6L194.18-19.6 194.18 0 188.03 0 188.03-18.9Q188.03-20.8 187.51-21.63 186.98-22.45 185.98-22.45L185.98-22.45Q183.88-22.45 181.83-18.5L181.83-18.5 181.83 0 175.68 0 175.68-37 181.83-37.65 181.83-23.3Q183.08-25.25 184.56-26.2 186.03-27.15 188.03-27.15L188.03-27.15Z" opacity="1" transform="matrix(1,0,0,1,0,0)" fill="#000000" class="wordmark-text-0" data-fill-palette-color="primary" id="text-0"></path></svg></g></svg></g></svg></g></svg></g></svg></g><defs></defs></svg><rect width="395.5199999999999" height="94.23497534388787" fill="none" stroke="none" visibility="hidden"></rect></g></svg></g></svg>