<svg xmlns="http://www.w3.org/2000/svg" version="1.1" xmlns:xlink="http://www.w3.org/1999/xlink" xmlns:svgjs="http://svgjs.dev/svgjs" width="1440" height="560" preserveAspectRatio="none" viewBox="0 0 1440 560">
    <g mask="url(&quot;#SvgjsMask1021&quot;)" fill="none">
        <path d="M1221 41L1220 376" stroke-width="6" stroke="url(&quot;#SvgjsLinearGradient1022&quot;)" stroke-linecap="round" class="Up"></path>
        <path d="M1070 172L1069 423" stroke-width="8" stroke="url(&quot;#SvgjsLinearGradient1022&quot;)" stroke-linecap="round" class="Up"></path>
        <path d="M1196 311L1195 461" stroke-width="8" stroke="url(&quot;#SvgjsLinearGradient1022&quot;)" stroke-linecap="round" class="Up"></path>
        <path d="M819 440L818 733" stroke-width="10" stroke="url(&quot;#SvgjsLinearGradient1022&quot;)" stroke-linecap="round" class="Up"></path>
        <path d="M540 263L539 503" stroke-width="8" stroke="url(&quot;#SvgjsLinearGradient1023&quot;)" stroke-linecap="round" class="Down"></path>
        <path d="M1302 439L1301 682" stroke-width="10" stroke="url(&quot;#SvgjsLinearGradient1023&quot;)" stroke-linecap="round" class="Down"></path>
        <path d="M767 234L766 476" stroke-width="8" stroke="url(&quot;#SvgjsLinearGradient1022&quot;)" stroke-linecap="round" class="Up"></path>
        <path d="M777 461L776 796" stroke-width="6" stroke="url(&quot;#SvgjsLinearGradient1022&quot;)" stroke-linecap="round" class="Up"></path>
        <path d="M1389 257L1388 23" stroke-width="10" stroke="url(&quot;#SvgjsLinearGradient1022&quot;)" stroke-linecap="round" class="Up"></path>
        <path d="M320 287L319 580" stroke-width="6" stroke="url(&quot;#SvgjsLinearGradient1022&quot;)" stroke-linecap="round" class="Up"></path>
        <path d="M584 420L583 678" stroke-width="6" stroke="url(&quot;#SvgjsLinearGradient1022&quot;)" stroke-linecap="round" class="Up"></path>
        <path d="M1045 79L1044 394" stroke-width="10" stroke="url(&quot;#SvgjsLinearGradient1022&quot;)" stroke-linecap="round" class="Up"></path>
        <path d="M764 300L763 572" stroke-width="10" stroke="url(&quot;#SvgjsLinearGradient1023&quot;)" stroke-linecap="round" class="Down"></path>
        <path d="M819 160L818 -192" stroke-width="8" stroke="url(&quot;#SvgjsLinearGradient1023&quot;)" stroke-linecap="round" class="Down"></path>
        <path d="M106 29L105 -341" stroke-width="10" stroke="url(&quot;#SvgjsLinearGradient1023&quot;)" stroke-linecap="round" class="Down"></path>
        <path d="M134 522L133 264" stroke-width="6" stroke="url(&quot;#SvgjsLinearGradient1023&quot;)" stroke-linecap="round" class="Down"></path>
        <path d="M916 120L915 358" stroke-width="10" stroke="url(&quot;#SvgjsLinearGradient1023&quot;)" stroke-linecap="round" class="Down"></path>
        <path d="M155 362L154 94" stroke-width="10" stroke="url(&quot;#SvgjsLinearGradient1023&quot;)" stroke-linecap="round" class="Down"></path>
        <path d="M136 200L135 341" stroke-width="6" stroke="url(&quot;#SvgjsLinearGradient1023&quot;)" stroke-linecap="round" class="Down"></path>
        <path d="M594 412L593 564" stroke-width="10" stroke="url(&quot;#SvgjsLinearGradient1022&quot;)" stroke-linecap="round" class="Up"></path>
        <path d="M1244 103L1243 -57" stroke-width="8" stroke="url(&quot;#SvgjsLinearGradient1022&quot;)" stroke-linecap="round" class="Up"></path>
        <path d="M974 47L973 -300" stroke-width="8" stroke="url(&quot;#SvgjsLinearGradient1023&quot;)" stroke-linecap="round" class="Down"></path>
        <path d="M1051 512L1050 799" stroke-width="10" stroke="url(&quot;#SvgjsLinearGradient1023&quot;)" stroke-linecap="round" class="Down"></path>
        <path d="M378 232L377 58" stroke-width="8" stroke="url(&quot;#SvgjsLinearGradient1022&quot;)" stroke-linecap="round" class="Up"></path>
        <path d="M107 83L106 -205" stroke-width="8" stroke="url(&quot;#SvgjsLinearGradient1023&quot;)" stroke-linecap="round" class="Down"></path>
        <path d="M278 94L277 448" stroke-width="6" stroke="url(&quot;#SvgjsLinearGradient1022&quot;)" stroke-linecap="round" class="Up"></path>
        <path d="M1335 433L1334 795" stroke-width="10" stroke="url(&quot;#SvgjsLinearGradient1022&quot;)" stroke-linecap="round" class="Up"></path>
        <path d="M426 105L425 -158" stroke-width="10" stroke="url(&quot;#SvgjsLinearGradient1023&quot;)" stroke-linecap="round" class="Down"></path>
        <path d="M525 495L524 772" stroke-width="8" stroke="url(&quot;#SvgjsLinearGradient1023&quot;)" stroke-linecap="round" class="Down"></path>
        <path d="M644 240L643 -7" stroke-width="6" stroke="url(&quot;#SvgjsLinearGradient1023&quot;)" stroke-linecap="round" class="Down"></path>
        <path d="M257 325L256 736" stroke-width="6" stroke="url(&quot;#SvgjsLinearGradient1023&quot;)" stroke-linecap="round" class="Down"></path>
        <path d="M1002 141L1001 -271" stroke-width="8" stroke="url(&quot;#SvgjsLinearGradient1023&quot;)" stroke-linecap="round" class="Down"></path>
        <path d="M368 511L367 160" stroke-width="6" stroke="url(&quot;#SvgjsLinearGradient1022&quot;)" stroke-linecap="round" class="Up"></path>
        <path d="M653 300L652 -78" stroke-width="8" stroke="url(&quot;#SvgjsLinearGradient1023&quot;)" stroke-linecap="round" class="Down"></path>
        <path d="M106 535L105 133" stroke-width="6" stroke="url(&quot;#SvgjsLinearGradient1022&quot;)" stroke-linecap="round" class="Up"></path>
        <path d="M456 500L455 913" stroke-width="6" stroke="url(&quot;#SvgjsLinearGradient1023&quot;)" stroke-linecap="round" class="Down"></path>
    </g>
    <defs>
        <mask id="SvgjsMask1021">
            <rect width="1440" height="560" fill="#ffffff"></rect>
        </mask>
        <linearGradient x1="0%" y1="100%" x2="0%" y2="0%" id="SvgjsLinearGradient1022">
            <stop stop-color="rgba(211, 214, 217, 0)" offset="0"></stop>
            <stop stop-color="rgba(211, 214, 217, 1)" offset="1"></stop>
        </linearGradient>
        <linearGradient x1="0%" y1="0%" x2="0%" y2="100%" id="SvgjsLinearGradient1023">
            <stop stop-color="rgba(211, 214, 217, 0)" offset="0"></stop>
            <stop stop-color="rgba(211, 214, 217, 1)" offset="1"></stop>
        </linearGradient>
    </defs>
</svg>