<svg xmlns="http://www.w3.org/2000/svg" width="20" height="20" viewBox="0 0 128 128"><path fill="#EA2328" d="M107.258 75.223c.172 3.945-2.66 7.394-6.586 8.015c-7.582 1.301-23.387 2.121-36.668 2.121c-13.277 0-29.086-.8-36.676-2.12c-4.34-.747-6.586-4.2-6.586-8.016v-25c.047-3.871 2.778-7.2 6.586-8.024a84.5 84.5 0 0 1 11.5-.75a2.86 2.86 0 0 1 2.79 2.899V61.96c7.8 0 14.542-.457 22.402-.457c7.863 0 14.546.457 22.378.457V44.492a2.84 2.84 0 0 1 2.637-3.035h.145a85 85 0 0 1 11.496.746c3.804.828 6.535 4.152 6.582 8.02ZM64.004 0C28.656 0 0 28.66 0 64c0 35.348 28.656 64 64 64c35.348 0 64-28.652 64-64c0-35.34-28.656-64-64-64Zm0 0"/></svg>